<svg xmlns="http://www.w3.org/2000/svg" viewBox="0 0 256 348">
  <defs>
    <linearGradient id="bg" x1="0" y1="0" x2="0" y2="1">
      <stop offset="0" stop-color="#221f3d"/>
      <stop offset="1" stop-color="#151225"/>
    </linearGradient>
    <linearGradient id="gem" x1="0" y1="0" x2="0" y2="1">
      <stop offset="0" stop-color="#7bffbe"/>
      <stop offset="1" stop-color="#17c964"/>
    </linearGradient>
  </defs>
  <rect width="256" height="348" rx="14" fill="url(#bg)"/>
  <g>
    <rect x="40" y="70" width="48" height="48" rx="8" fill="#281d3f"/>
    <rect x="96" y="70" width="48" height="48" rx="8" fill="#281d3f"/>
    <rect x="152" y="70" width="48" height="48" rx="8" fill="#3a2c5c"/>
    <rect x="40" y="126" width="48" height="48" rx="8" fill="#3a2c5c"/>
    <rect x="96" y="126" width="48" height="48" rx="8" fill="#281d3f"/>
    <rect x="152" y="126" width="48" height="48" rx="8" fill="#281d3f"/>
    <rect x="40" y="182" width="48" height="48" rx="8" fill="#281d3f"/>
    <rect x="96" y="182" width="48" height="48" rx="8" fill="#3a2c5c"/>
    <rect x="152" y="182" width="48" height="48" rx="8" fill="#281d3f"/>
  </g>
  <g stroke="#0c6b39" stroke-width="1" stroke-linejoin="round" transform="translate(144 78) scale(1.5)">
    <polygon points="6,3 18,3 22,9 12,22 2,9" fill="url(#gem)"/>
    <path d="M2 9h20M6 3l2 6-2 0M18 3l-2 6 2 0M8 9l4 13 4-13" fill="none" opacity="0.5"/>
  </g>
  <g transform="translate(52 140) scale(1.5)">
    <circle cx="11" cy="14" r="7" fill="#161421"/>
    <circle cx="8.5" cy="11.5" r="2" fill="#3a3550"/>
    <rect x="12" y="4" width="3" height="4" rx="1" fill="#5a5470" transform="rotate(-20 13 6)"/>
    <path d="M15 5c3-2 4 1 6-1" fill="none" stroke="#8a8398" stroke-width="1.2" stroke-linecap="round"/>
    <circle cx="21" cy="4" r="1.6" fill="#eab308"/>
  </g>
  <text x="128" y="272" text-anchor="middle" font-family="Arial, sans-serif" font-size="30" font-weight="bold" fill="#e1dde9" letter-spacing="5">MINES</text>
</svg>
